{"extensionsUsed" : ["KHR_materials_specular"], "accessors" : [{"bufferView" : 0, "byteOffset" : 0, "componentType" : 5123, "count" : 9240, "type" : "SCALAR", "max" : [7836], "min" : [0]}, {"bufferView" : 1, "byteOffset" : 0, "componentType" : 5126, "count" : 7837, "type" : "VEC3", "max" : [33.013912200927734, 33.013912200927734, 33.013912200927734], "min" : [-33.013916015625, -33.013912200927734, -33.013912200927734], "name" : "POSITION"}, {"bufferView" : 1, "byteOffset" : 12, "componentType" : 5126, "count" : 7837, "type" : "VEC3", "max" : [0.9961881041526794, 0.9961883425712585, 0.9961884021759033], "min" : [-0.9961882829666138, -0.9961884021759033, -0.9961881041526794], "name" : "NORMAL"}, {"bufferView" : 1, "byteOffset" : 24, "componentType" : 5126, "count" : 7837, "type" : "VEC2", "max" : [0.43632152676582336, 0.4363216161727905], "min" : [-0.436321496963501, -0.43632155656814575], "name" : "TEXCOORD_0"}, {"bufferView" : 0, "byteOffset" : 18480, "componentType" : 5123, "count" : 4608, "type" : "SCALAR", "max" : [3908], "min" : [0]}, {"bufferView" : 2, "byteOffset" : 0, "componentType" : 5126, "count" : 3909, "type" : "VEC3", "max" : [32.04690933227539, 32.04690933227539, 32.04690933227539], "min" : [-32.04691696166992, -32.04690933227539, -32.04690933227539], "name" : "POSITION"}, {"bufferView" : 2, "byteOffset" : 12, "componentType" : 5126, "count" : 3909, "type" : "VEC3", "max" : [0.994231641292572, 0.9942315816879272, 0.9942315816879272], "min" : [-0.9942315816879272, -0.994231641292572, -0.9942317008972168], "name" : "NORMAL"}, {"bufferView" : 2, "byteOffset" : 24, "componentType" : 5126, "count" : 3909, "type" : "VEC2", "max" : [0.16671261191368103, 0.37269556522369385], "min" : [-0.16671264171600342, -0.37269556522369385], "name" : "TEXCOORD_0"}], "asset" : {"generator" : "Aspose.3D 23.9.0", "version" : "2.0"}, "buffers" : [{"uri" : "data:application/octet-stream;base64,", "byteLength" : 470844}], "bufferViews" : [{"buffer" : 0, "byteOffset" : 0, "byteLength" : 27696, "target" : 34963}, {"buffer" : 0, "byteOffset" : 27700, "byteLength" : 295680, "byteStride" : 32, "target" : 34962}, {"buffer" : 0, "byteOffset" : 323384, "byteLength" : 147456, "byteStride" : 32, "target" : 34962}], "materials" : [{"name" : "02_-_Default", "extensions" : {"KHR_materials_specular" : {"specularColorFactor" : [1, 1, 1], "specularFactor" : 1}}, "pbrMetallicRoughness" : {"baseColorFactor" : [0.5390187470359235, 0.5390187470359235, 0.5390187470359235, 1], "metallicFactor" : 0, "roughnessFactor" : 0.07113318141754865}, "emissiveFactor" : [0, 0, 0], "alphaMode" : "OPAQUE", "doubleSided" : true}, {"name" : "01_-_Default", "pbrMetallicRoughness" : {"baseColorFactor" : [0.0156863, 0.0156863, 0.0156863, 1], "metallicFactor" : 0, "roughnessFactor" : 0.27761551199575996}, "emissiveFactor" : [0, 0, 0], "alphaMode" : "OPAQUE", "doubleSided" : true}], "meshes" : [{"primitives" : [{"attributes" : {"POSITION" : 1, "NORMAL" : 2, "TEXCOORD_0" : 3}, "indices" : 0, "material" : 0, "mode" : 4}]}, {"primitives" : [{"attributes" : {"POSITION" : 5, "NORMAL" : 6, "TEXCOORD_0" : 7}, "indices" : 4, "material" : 1, "mode" : 4}]}], "nodes" : [{"mesh" : 0, "name" : "Hedra001_02 - Default_0"}, {"mesh" : 1, "name" : "Hedra001_01 - Default_0"}, {"children" : [0, 1], "matrix" : [1, 0, 0, 0, 0, 2.220446049250313E-16, -1, 0, 0, 1, 2.220446049250313E-16, 0, 20.205720901489258, 53.3443603515625, -22.543018341064453, 1], "name" : "Hedra001"}, {"children" : [2], "name" : "RootNode"}, {"children" : [3], "matrix" : [0.02539999969303608, 0, 0, 0, 0, 0, 0.02539999969303608, 0, 0, -0.02539999969303608, 0, 0, 0, 0, 0, 1], "name" : "540dc3ddcbbb4d98bc3b12aed7e0a929.fbx"}, {"children" : [4], "matrix" : [1, 0, 0, 0, 0, 2.220446049250313E-16, -1, 0, 0, 1, 2.220446049250313E-16, 0, 0, 0, 0, 1], "name" : "Sketchfab_model"}], "scene" : 0, "scenes" : [{"nodes" : [5]}]}