{"accessors" : [{"bufferView" : 0, "byteOffset" : 0, "componentType" : 5123, "count" : 5610, "type" : "SCALAR", "max" : [5121], "min" : [0]}, {"bufferView" : 1, "byteOffset" : 0, "componentType" : 5126, "count" : 5122, "type" : "VEC3", "max" : [0.09240300208330154, 0.10901399701833725, 0.34537801146507263], "min" : [-0.09236499667167664, -0.36751100420951843, 0.0027660001069307327], "name" : "POSITION"}, {"bufferView" : 1, "byteOffset" : 12, "componentType" : 5126, "count" : 5122, "type" : "VEC3", "max" : [0.9999325275421143, 0.9881214499473572, 0.9998730421066284], "min" : [-0.9999325275421143, -0.9998405575752258, -0.9994663596153259], "name" : "NORMAL"}, {"bufferView" : 1, "byteOffset" : 24, "componentType" : 5126, "count" : 5122, "type" : "VEC2", "max" : [0.9970700144767761, 0.9970700144767761], "min" : [0.01023900043219328, 0.006370999850332737], "name" : "TEXCOORD_0"}, {"bufferView" : 0, "byteOffset" : 11220, "componentType" : 5123, "count" : 10266, "type" : "SCALAR", "max" : [8611], "min" : [0]}, {"bufferView" : 2, "byteOffset" : 0, "componentType" : 5126, "count" : 8612, "type" : "VEC3", "max" : [0.09678400307893753, 0.4300920069217682, 0.34265899658203125], "min" : [-0.09678000211715698, -0.18357299268245697, -0.0017819999484345317], "name" : "POSITION"}, {"bufferView" : 2, "byteOffset" : 12, "componentType" : 5126, "count" : 8612, "type" : "VEC3", "max" : [0.999342679977417, 0.994694709777832, 0.9999918937683105], "min" : [-0.9991284012794495, -0.9980125427246094, -1.0000044107437134], "name" : "NORMAL"}, {"bufferView" : 2, "byteOffset" : 24, "componentType" : 5126, "count" : 8612, "type" : "VEC2", "max" : [0.9936519861221313, 0.9902340173721313], "min" : [0.007069000042974949, 0.009437999688088894], "name" : "TEXCOORD_0"}, {"bufferView" : 0, "byteOffset" : 31752, "componentType" : 5123, "count" : 2535, "type" : "SCALAR", "max" : [2180], "min" : [0]}, {"bufferView" : 3, "byteOffset" : 0, "componentType" : 5126, "count" : 2181, "type" : "VEC3", "max" : [0.07480199635028839, -0.2587699890136719, 0.40720099210739136], "min" : [-0.07495799660682678, -0.31932398676872253, 0.3389439880847931], "name" : "POSITION"}, {"bufferView" : 3, "byteOffset" : 12, "componentType" : 5126, "count" : 2181, "type" : "VEC3", "max" : [0.9999270439147949, 0.6997830867767334, 0.9873271584510803], "min" : [-0.9999270439147949, -0.9994692206382751, -0.9849094152450562], "name" : "NORMAL"}, {"bufferView" : 3, "byteOffset" : 24, "componentType" : 5126, "count" : 2181, "type" : "VEC2", "max" : [0.9711909890174866, 0.9726560115814209], "min" : [0.03750599920749664, 0.03418000042438507], "name" : "TEXCOORD_0"}, {"bufferView" : 0, "byteOffset" : 36824, "componentType" : 5123, "count" : 9348, "type" : "SCALAR", "max" : [7909], "min" : [0]}, {"bufferView" : 4, "byteOffset" : 0, "componentType" : 5126, "count" : 7910, "type" : "VEC3", "max" : [0.17451100051403046, -0.09469100087881088, 0.5483599901199341], "min" : [-0.17466600239276886, -0.40688198804855347, 0.17509199678897858], "name" : "POSITION"}, {"bufferView" : 4, "byteOffset" : 12, "componentType" : 5126, "count" : 7910, "type" : "VEC3", "max" : [1.0000044107437134, 1.0000044107437134, 1.0000044107437134], "min" : [-1.0000044107437134, -1.0000044107437134, -0.9999449253082275], "name" : "NORMAL"}, {"bufferView" : 4, "byteOffset" : 24, "componentType" : 5126, "count" : 7910, "type" : "VEC2", "max" : [0.9907230138778687, 0.9921879768371582], "min" : [0.00559200020506978, 0.006577000021934509], "name" : "TEXCOORD_0"}], "asset" : {"generator" : "Aspose.3D 23.9.0", "version" : "2.0"}, "buffers" : [{"uri" : "data:application/octet-stream;base64,", "byteLength" : 943828}], "bufferViews" : [{"buffer" : 0, "byteOffset" : 0, "byteLength" : 55520, "target" : 34963}, {"buffer" : 0, "byteOffset" : 55524, "byteLength" : 179520, "byteStride" : 32, "target" : 34962}, {"buffer" : 0, "byteOffset" : 235048, "byteLength" : 328512, "byteStride" : 32, "target" : 34962}, {"buffer" : 0, "byteOffset" : 563564, "byteLength" : 81120, "byteStride" : 32, "target" : 34962}, {"buffer" : 0, "byteOffset" : 644688, "byteLength" : 299136, "byteStride" : 32, "target" : 34962}], "images" : [{"uri" : "data:image/png;base64,"}, {"uri" : "data:image/png;base64,"}, {"uri" : "data:image/jpeg;base64,"}, {"uri" : "data:image/png;base64,"}], "materials" : [{"name" : "Tex_0000_0.dds", "pbrMetallicRoughness" : {"baseColorFactor" : [1, 1, 1, 1], "baseColorTexture" : {"index" : 0, "texCoord" : 0}, "metallicFactor" : 0, "roughnessFactor" : 0.8063508326896291}, "emissiveFactor" : [0, 0, 0], "alphaMode" : "OPAQUE", "doubleSided" : true}, {"name" : "Tex_0010_0.dds", "pbrMetallicRoughness" : {"baseColorFactor" : [1, 1, 1, 1], "baseColorTexture" : {"index" : 1, "texCoord" : 0}, "metallicFactor" : 0, "roughnessFactor" : 0.8063508326896291}, "emissiveFactor" : [0, 0, 0], "alphaMode" : "OPAQUE", "doubleSided" : true}, {"name" : "Tex_0012_0.dds", "pbrMetallicRoughness" : {"baseColorFactor" : [1, 1, 1, 1], "baseColorTexture" : {"index" : 2, "texCoord" : 0}, "metallicFactor" : 0, "roughnessFactor" : 0.8063508326896291}, "emissiveFactor" : [0, 0, 0], "alphaMode" : "OPAQUE", "doubleSided" : true}, {"name" : "Tex_0004_0.dds.001", "pbrMetallicRoughness" : {"baseColorFactor" : [1, 1, 1, 1], "baseColorTexture" : {"index" : 3, "texCoord" : 0}, "metallicFactor" : 0, "roughnessFactor" : 0.8063508326896291}, "emissiveFactor" : [0, 0, 0], "alphaMode" : "OPAQUE", "doubleSided" : true}], "meshes" : [{"primitives" : [{"attributes" : {"POSITION" : 1, "NORMAL" : 2, "TEXCOORD_0" : 3}, "indices" : 0, "material" : 0, "mode" : 4}]}, {"primitives" : [{"attributes" : {"POSITION" : 5, "NORMAL" : 6, "TEXCOORD_0" : 7}, "indices" : 4, "material" : 1, "mode" : 4}]}, {"primitives" : [{"attributes" : {"POSITION" : 9, "NORMAL" : 10, "TEXCOORD_0" : 11}, "indices" : 8, "material" : 2, "mode" : 4}]}, {"primitives" : [{"attributes" : {"POSITION" : 13, "NORMAL" : 14, "TEXCOORD_0" : 15}, "indices" : 12, "material" : 3, "mode" : 4}]}], "nodes" : [{"mesh" : 0, "name" : "Object_2"}, {"mesh" : 1, "name" : "Object_3"}, {"mesh" : 2, "name" : "Object_4"}, {"mesh" : 3, "name" : "Object_5"}, {"children" : [0, 1, 2, 3], "name" : "bolt.obj.cleaner.materialmerger.gles"}, {"children" : [4], "matrix" : [1, 0, 0, 0, 0, 2.220446049250313E-16, -1, 0, 0, 1, 2.220446049250313E-16, 0, 0, 0, 0, 1], "name" : "Sketchfab_model"}], "samplers" : [{"magFilter" : 9729, "minFilter" : 9987, "wrapS" : 10497, "wrapT" : 10497}, {"magFilter" : 9729, "minFilter" : 9987, "wrapS" : 10497, "wrapT" : 10497}, {"magFilter" : 9729, "minFilter" : 9987, "wrapS" : 10497, "wrapT" : 10497}, {"magFilter" : 9729, "minFilter" : 9987, "wrapS" : 10497, "wrapT" : 10497}], "scene" : 0, "scenes" : [{"nodes" : [5]}], "textures" : [{"sampler" : 0, "source" : 0, "name" : ""}, {"sampler" : 1, "source" : 1, "name" : ""}, {"sampler" : 2, "source" : 2, "name" : ""}, {"sampler" : 3, "source" : 3, "name" : ""}]}